<svg width="900" height="900" viewBox="0 0 900 900" fill="none" xmlns="http://www.w3.org/2000/svg">
  <g opacity="0.18">
    <circle cx="660" cy="220" r="170" fill="url(#paint0_radial)"/>
    <circle cx="740" cy="520" r="210" fill="url(#paint1_radial)"/>
    <circle cx="420" cy="680" r="180" fill="url(#paint2_radial)"/>
  </g>
  <g opacity="0.22" stroke-linecap="round" stroke-linejoin="round">
    <path d="M516 186C566.81 154.119 630.79 151.106 684.355 178.158C737.92 205.21 773.335 258.594 778.117 318.42" stroke="#2563EB" stroke-width="22"/>
    <path d="M285 552C322.868 494.374 393.638 463.713 461.421 474.709C529.204 485.704 585.491 536.22 605 602.053" stroke="#0EA5E9" stroke-width="22"/>
    <path d="M280 250H498C512.359 250 524 261.641 524 276V418C524 432.359 512.359 444 498 444H280C265.641 444 254 432.359 254 418V276C254 261.641 265.641 250 280 250Z" stroke="#1D4ED8" stroke-width="18"/>
    <path d="M308 307H468" stroke="#1D4ED8" stroke-width="16"/>
    <path d="M308 348H442" stroke="#38BDF8" stroke-width="16"/>
    <path d="M308 389H418" stroke="#38BDF8" stroke-width="16"/>
    <path d="M588 506H730C748.778 506 764 521.222 764 540V664C764 682.778 748.778 698 730 698H588C569.222 698 554 682.778 554 664V540C554 521.222 569.222 506 588 506Z" stroke="#22C55E" stroke-width="18"/>
    <path d="M608 548H712" stroke="#22C55E" stroke-width="16"/>
    <path d="M608 588H692" stroke="#86EFAC" stroke-width="16"/>
    <path d="M608 628H670" stroke="#86EFAC" stroke-width="16"/>
    <path d="M176 592C176 559.967 201.967 534 234 534H344C376.033 534 402 559.967 402 592V661C402 693.033 376.033 719 344 719H234C201.967 719 176 693.033 176 661V592Z" stroke="#F97316" stroke-width="18"/>
    <path d="M222 639L258 603L286 630L344 572" stroke="#F97316" stroke-width="18"/>
  </g>
  <defs>
    <radialGradient id="paint0_radial" cx="0" cy="0" r="1" gradientUnits="userSpaceOnUse" gradientTransform="translate(660 220) rotate(90) scale(170)">
      <stop stop-color="#60A5FA"/>
      <stop offset="1" stop-color="#60A5FA" stop-opacity="0"/>
    </radialGradient>
    <radialGradient id="paint1_radial" cx="0" cy="0" r="1" gradientUnits="userSpaceOnUse" gradientTransform="translate(740 520) rotate(90) scale(210)">
      <stop stop-color="#34D399"/>
      <stop offset="1" stop-color="#34D399" stop-opacity="0"/>
    </radialGradient>
    <radialGradient id="paint2_radial" cx="0" cy="0" r="1" gradientUnits="userSpaceOnUse" gradientTransform="translate(420 680) rotate(90) scale(180)">
      <stop stop-color="#FDBA74"/>
      <stop offset="1" stop-color="#FDBA74" stop-opacity="0"/>
    </radialGradient>
  </defs>
</svg>
